<svg data-v-423bf9ae="" xmlns="http://www.w3.org/2000/svg" viewBox="0 0 255 92" class="iconLeft"><!----><!----><!----><g data-v-423bf9ae="" id="eaf05513-56bf-4af9-ae3a-6a881d7dc867" fill="white" transform="matrix(4.788507683852314,0,0,4.788507683852314,109.4394063695269,10.99485866780369)"><path d="M4.35 1.48L4.35 1.48Q4.73 1.40 5.05 1.40L5.05 1.40L5.05 1.40Q6.27 1.40 6.87 2.44L6.87 2.44L6.87 2.44Q7.48 3.49 7.48 5.15L7.48 5.15L7.48 5.15Q7.48 6.89 6.87 8.73L6.87 8.73L6.87 8.73Q6.26 10.57 5.20 11.79L5.20 11.79L5.20 11.79Q4.14 13.01 2.86 13.01L2.86 13.01L2.86 13.01Q2.25 13.01 1.68 12.73L1.68 12.73L1.68 12.73Q0.98 12.38 0.64 11.54L0.64 11.54L0.64 11.54Q0.29 10.70 0.29 9.52L0.29 9.52L0.29 9.52Q0.29 7.92 0.86 6.13L0.86 6.13L0.86 6.13Q1.43 4.33 2.37 3.02L2.37 3.02L2.37 3.02Q3.30 1.72 4.35 1.48L4.35 1.48ZM4.10 3.75L4.10 3.75Q3.37 3.77 2.78 4.50L2.78 4.50L2.78 4.50Q2.18 5.24 1.84 6.33L1.84 6.33L1.84 6.33Q1.50 7.43 1.50 8.48L1.50 8.48L1.50 8.48Q1.50 9.55 1.88 10.21L1.88 10.21L1.88 10.21Q2.25 10.88 3.01 10.88L3.01 10.88L3.01 10.88Q3.32 10.88 3.63 10.78L3.63 10.78L3.63 10.78Q4.27 10.57 4.82 9.83L4.82 9.83L4.82 9.83Q5.38 9.09 5.70 8.09L5.70 8.09L5.70 8.09Q6.02 7.08 6.02 6.15L6.02 6.15L6.02 6.15Q6.02 5.05 5.55 4.39L5.55 4.39L5.55 4.39Q5.08 3.72 4.10 3.75L4.10 3.75ZM15.60 7.39L15.60 7.39Q15.74 7.06 15.74 6.76L15.74 6.76L15.74 6.76Q15.74 5.85 14.35 5.85L14.35 5.85L14.35 5.85Q13.71 5.85 12.96 6.04L12.96 6.04L12.96 6.04Q12.21 6.23 11.77 6.45L11.77 6.45L11.77 6.45Q11.02 6.83 10.66 7.19L10.66 7.19L10.66 7.19Q10.30 7.55 10.29 8.19L10.29 8.19L10.29 8.19Q10.28 9.17 10.23 9.91L10.23 9.91L10.23 9.91Q10.19 10.64 10.08 11.35L10.08 11.35L10.08 11.35Q11.77 10.72 13.22 9.76L13.22 9.76L13.22 9.76Q14.17 9.13 14.76 8.60L14.76 8.60L14.76 8.60Q15.34 8.08 15.60 7.39L15.60 7.39ZM10.46 4.35L10.46 4.35Q10.46 4.56 10.43 5.04L10.43 5.04L10.43 5.04Q10.40 5.32 10.40 5.49L10.40 5.49L11.00 4.70L11.00 4.70Q11.51 4.05 11.77 3.68L11.77 3.68L11.77 3.68Q12.04 3.30 12.26 2.87L12.26 2.87L12.26 2.87Q11.77 2.98 11.40 3.12L11.40 3.12L11.40 3.12Q11.02 3.25 10.71 3.46L10.71 3.46L10.71 3.46Q10.54 3.58 10.48 3.67L10.48 3.67L10.48 3.67Q10.42 3.75 10.42 3.85L10.42 3.85L10.42 3.85Q10.42 3.93 10.44 4.07L10.44 4.07L10.44 4.07Q10.46 4.21 10.46 4.35L10.46 4.35ZM15.76 3.98L15.76 3.98Q16.52 4.10 16.88 4.56L16.88 4.56L16.88 4.56Q17.23 5.03 17.23 5.71L17.23 5.71L17.23 5.71Q17.23 6.22 17.02 6.89L17.02 6.89L17.02 6.89Q16.48 8.61 14.53 10.32L14.53 10.32L14.53 10.32Q13.01 11.62 11.14 12.57L11.14 12.57L11.14 12.57Q10.54 12.89 9.77 13.22L9.77 13.22L9.77 13.22Q9.00 13.54 8.46 13.54L8.46 13.54L8.46 13.54Q8.04 13.54 7.90 13.29L7.90 13.29L7.90 13.29Q7.84 13.19 7.84 13.06L7.84 13.06L7.84 13.06Q7.84 12.89 7.92 12.75L7.92 12.75L7.92 12.75Q8.01 12.60 8.19 12.33L8.19 12.33L8.19 12.33Q8.40 12.05 8.46 11.91L8.46 11.91L8.46 11.91Q8.58 11.55 8.58 10.91L8.58 10.91L8.58 10.57L8.58 10.57Q8.58 10.46 8.57 10.30L8.57 10.30L8.57 10.30Q8.57 10.15 8.58 9.97L8.58 9.97L8.58 9.97Q8.69 8.46 8.74 7.70L8.74 7.70L8.74 7.70Q8.74 7.50 8.75 7.36L8.75 7.36L8.75 7.36Q8.76 7.21 8.78 7.10L8.78 7.10L8.78 7.10Q8.79 6.96 8.81 6.75L8.81 6.75L8.81 6.75Q8.82 6.54 8.82 6.26L8.82 6.26L8.82 6.26Q8.82 5.96 8.78 5.70L8.78 5.70L8.78 5.70Q8.72 5.33 8.61 5.15L8.61 5.15L8.61 5.15Q8.60 5.11 8.48 4.99L8.48 4.99L8.48 4.99Q8.36 4.87 8.34 4.82L8.34 4.82L8.34 4.82Q8.33 4.76 8.33 4.66L8.33 4.66L8.33 4.66Q8.33 4.20 8.86 3.36L8.86 3.36L8.86 3.36Q9.02 3.12 9.17 2.95L9.17 2.95L9.17 2.95Q9.32 2.79 9.51 2.72L9.51 2.72L9.51 2.72Q9.56 2.69 9.69 2.69L9.69 2.69L9.69 2.69Q9.73 2.69 9.81 2.69L9.81 2.69L9.81 2.69Q9.88 2.69 9.93 2.67L9.93 2.67L9.93 2.67Q10.08 2.62 10.24 2.46L10.24 2.46L10.24 2.46Q10.40 2.31 10.43 2.28L10.43 2.28L10.43 2.28Q10.58 2.13 10.72 2.03L10.72 2.03L10.72 2.03Q11.17 1.71 11.90 1.36L11.90 1.36L11.90 1.36Q12.63 1.01 13.15 1.01L13.15 1.01L13.15 1.01Q13.65 1.01 13.79 1.41L13.79 1.41L13.79 1.41Q13.85 1.57 13.85 1.75L13.85 1.75L13.85 1.75Q13.85 2.28 13.48 2.90L13.48 2.90L13.48 2.90Q13.12 3.53 12.53 4.30L12.53 4.30L12.53 4.30Q12.45 4.42 12.25 4.69L12.25 4.69L12.25 4.69Q13.76 3.92 15.11 3.92L15.11 3.92L15.11 3.92Q15.47 3.92 15.76 3.98L15.76 3.98ZM22.92 11.52L22.92 11.52Q22.85 11.61 22.59 11.97L22.59 11.97L22.59 11.97Q22.33 12.33 22.03 12.59L22.03 12.59L22.03 12.59Q21.73 12.85 21.48 12.85L21.48 12.85L21.48 12.85Q21.32 12.85 21.18 12.75L21.18 12.75L21.18 12.75Q21.06 12.67 21 12.47L21 12.47L21 12.47Q20.94 12.28 20.89 11.94L20.89 11.94L20.89 11.94Q20.80 11.44 20.67 11.19L20.67 11.19L20.67 11.19Q20.54 10.95 20.22 11.00L20.22 11.00L20.22 11.00Q20.01 11.05 19.74 11.28L19.74 11.28L19.74 11.28Q19.47 11.52 19.26 11.75L19.26 11.75L19.26 11.75Q19.05 11.97 18.97 12.05L18.97 12.05L18.69 12.32L18.69 12.32Q18.48 12.54 18.33 12.68L18.33 12.68L18.33 12.68Q18.17 12.82 17.99 12.91L17.99 12.91L17.99 12.91Q17.78 13.01 17.61 13.01L17.61 13.01L17.61 13.01Q17.25 13.01 17.25 12.42L17.25 12.42L17.25 12.42Q17.25 12.12 17.30 11.79L17.30 11.79L17.30 11.79Q17.36 11.45 17.37 11.40L17.37 11.40L17.37 11.40Q17.99 6.72 18.37 4.16L18.37 4.16L18.37 4.16Q18.52 3.19 18.78 2.46L18.78 2.46L18.78 2.46Q19.04 1.74 19.64 1.57L19.64 1.57L19.64 1.57Q19.78 1.54 19.82 1.54L19.82 1.54L19.82 1.54Q20.05 1.54 20.15 1.70L20.15 1.70L20.15 1.70Q20.24 1.86 20.24 2.13L20.24 2.13L20.24 2.13Q20.24 2.38 20.16 2.65L20.16 2.65L20.16 2.65Q20.08 2.91 19.96 3.07L19.96 3.07L19.96 3.25L19.96 3.25Q19.96 3.46 19.92 3.72L19.92 3.72L19.92 3.72Q19.87 3.99 19.85 4.10L19.85 4.10L19.60 5.92L19.03 10.08L19.03 10.08Q19.57 9.59 20.05 9.27L20.05 9.27L20.05 9.27Q20.52 8.95 20.99 8.95L20.99 8.95L20.99 8.95Q21.62 8.95 21.92 9.48L21.92 9.48L21.92 9.48Q22.23 10.01 22.46 10.84L22.46 10.84L22.46 10.84Q22.67 10.61 22.85 10.61L22.85 10.61L22.85 10.61Q22.97 10.61 23.04 10.72L23.04 10.72L23.04 10.72Q23.11 10.84 23.11 11.00L23.11 11.00L23.11 11.00Q23.11 11.31 22.92 11.52L22.92 11.52ZM25.97 5.81L25.97 5.81Q25.96 5.91 25.96 6.09L25.96 6.09L25.96 6.09Q25.96 6.30 25.98 6.66L25.98 6.66L25.98 6.66Q26.01 7.06 26.01 7.25L26.01 7.25L26.01 7.25Q26.11 7.18 26.39 7.04L26.39 7.04L26.39 7.04Q26.98 6.73 27.31 6.45L27.31 6.45L27.31 6.45Q27.65 6.17 27.65 5.82L27.65 5.82L27.65 5.82Q27.65 5.75 27.64 5.71L27.64 5.71L27.64 5.71Q27.58 5.40 27.34 5.17L27.34 5.17L27.34 5.17Q27.10 4.93 26.88 4.81L26.88 4.81L26.88 4.81Q26.66 4.69 26.14 4.42L26.14 4.42L26.14 4.42Q26.04 5.11 25.97 5.81L25.97 5.81ZM27.71 5.99L27.66 6.06L27.71 5.99ZM27.71 5.96L27.71 5.96L27.71 5.96ZM27.73 5.89L27.72 5.81L27.73 5.89ZM29.76 7.69L29.76 7.69Q29.88 7.66 29.92 7.66L29.92 7.66L29.92 7.66Q30.30 7.66 30.30 8.48L30.30 8.48L30.30 8.48Q30.30 8.92 30.23 9.31L30.23 9.31L30.23 9.31Q30.17 9.70 30.17 9.74L30.17 9.74L30.17 9.74Q30.07 10.46 29.90 11.00L29.90 11.00L29.90 11.00Q29.74 11.55 29.40 12.01L29.40 12.01L29.40 12.01Q28.95 12.61 28.52 12.61L28.52 12.61L28.52 12.61Q28.15 12.61 27.66 12.21L27.66 12.21L26.29 11.07L25.66 10.54L25.66 10.54Q25.59 10.85 25.36 11.36L25.36 11.36L25.36 11.36Q25.13 11.87 24.81 12.27L24.81 12.27L24.81 12.27Q24.49 12.67 24.14 12.67L24.14 12.67L24.14 12.67Q24.05 12.67 23.94 12.63L23.94 12.63L23.94 12.63Q23.66 12.52 23.66 11.86L23.66 11.86L23.66 11.86Q23.66 11.24 23.87 10.32L23.87 10.32L23.94 9.88L23.94 9.88Q23.95 9.74 24.04 9.18L24.04 9.18L24.04 9.18Q24.12 8.62 24.16 8.15L24.16 8.15L24.16 8.15Q24.21 7.67 24.21 7.27L24.21 7.27L24.21 7.27Q24.21 6.82 24.18 6.59L24.18 6.59L24.18 6.59Q24.12 6.13 24.08 5.94L24.08 5.94L24.08 5.94Q23.94 5.04 23.94 4.55L23.94 4.55L23.94 4.55Q23.94 3.98 24.11 3.54L24.11 3.54L24.11 3.54Q24.39 2.80 24.93 2.46L24.93 2.46L24.93 2.46Q25.47 2.11 26.14 2.11L26.14 2.11L26.14 2.11Q26.94 2.11 27.75 2.53L27.75 2.53L27.75 2.53Q28.56 2.94 29.01 3.53L29.01 3.53L29.01 3.53Q29.40 4.03 29.40 4.69L29.40 4.69L29.40 4.69Q29.40 5.38 28.99 6.09L28.99 6.09L28.99 6.09Q28.57 6.80 27.95 7.42L27.95 7.42L27.95 7.42Q27.33 8.04 26.67 8.43L26.67 8.43L26.67 8.43Q27.22 8.83 27.72 9.27L27.72 9.27L27.72 9.27Q28.31 9.74 28.60 9.97L28.60 9.97L28.60 9.97Q28.60 8.08 29.76 7.69L29.76 7.69Z"></path></g><!----><g data-v-423bf9ae="" id="b25ae541-4b9d-4373-a04a-d72b58dbe981" transform="matrix(1.009193844265408,0,0,1.009193844265408,-4.460009823273545,-3.8734152928930925)" stroke="none" fill="white"><path clip-rule="evenodd" d="M28.771 17.173c5.02 1.652 10.008 3.406 15.067 4.925 5.057 1.516 10.115 3.476 15.299 4.009 6.457.665 12.558-4.046 14.61-10.262 1.062-3.222 2.696-2.23 4.53-1.064 7.34 4.669 11.965 11.562 14.427 19.615 1.563 5.117 1.782 10.681 2.272 16.075.271 2.974-1.71 4.844-4.278 6.18-14.588 7.593-27.94 4.734-41.068-4.049-7.153-4.785-14.787-9.067-22.696-12.418-4.031-1.708-9.145-1.073-13.771-1.102-5.128-.03-6.927-1.898-4.908-6.463 4.152-9.393 8.605-14.57 20.516-15.446z"></path><path clip-rule="evenodd" d="M5.006 54.279c-.057-7.91.199-7.67 5.821-8.992 11.541-2.715 20.914 1.757 29.956 7.999 6.697 4.621 13.166 9.583 21.258 11.819 8.952 2.476 17.654 2.253 26.341-1.026 1.229-.463 2.712-.253 4.077-.354-.207 1.363-.17 2.824-.66 4.075-5.368 13.711-21.246 16.426-34.401 10.659-3.896-1.708-7.819-3.488-11.901-4.616-8.061-2.228-15.919 1.389-19.252 8.956-1.49 3.38-2.824 3.047-5.266 1.246C10.23 76.111 6.221 64.851 5.006 54.279z"></path><path clip-rule="evenodd" d="M72.867 89.96c-5.53 1.722-10.052 3.428-14.719 4.514-7.909 1.84-15.677.96-23.056-2.482-4.632-2.162-5.158-7.041-1.304-10.342 3.779-3.238 8.233-3.479 12.464-1.9 7.835 2.926 15.173 7.26 23.797 7.833.587.038 1.121.91 2.818 2.377zM28.966 9.381c4.194-1.357 8.302-3.201 12.601-3.964 7.153-1.27 14.361-1.303 21.349 1.462 3.164 1.251 5.53 3.192 5.36 6.673-.173 3.499-2.896 5.705-6.016 6.109-3.469.449-7.273.376-10.602-.593-7.012-2.042-13.809-4.815-20.69-7.3-.586-.213-1.14-.517-1.71-.778-.096-.537-.195-1.073-.292-1.609z"></path></g><!----></svg>